<svg xmlns="http://www.w3.org/2000/svg" width="22.028" height="16.808" viewBox="0 0 22.028 16.808"><defs><style>.a{fill:#d5d5d5;}</style></defs><path class="a" d="M179.834,61.093l-.028-.025a.8.8,0,0,0-.516-.188h-10.45a.323.323,0,1,0,0,.645h9.905l-5.868,4.088a.412.412,0,0,1-.469,0l-5.869-4.088h.8a.323.323,0,0,0,0-.645h-1.34a.8.8,0,0,0-.517.189l-.027.024a.8.8,0,0,0-.262.593v8.075a.8.8,0,0,0,.266.6l.02.019a.8.8,0,0,0,.519.191h13.3a.8.8,0,0,0,.519-.19l.021-.02a.8.8,0,0,0,.265-.6V61.686A.8.8,0,0,0,179.834,61.093Zm-6.588,5.05.038-.027,2.359,1.643a.323.323,0,0,0,.369-.53l-2.163-1.507,5.6-3.9v7.805l-2.2-1.535a.323.323,0,0,0-.369.529l1.868,1.3H166.539l5.462-3.8.038.026A1.06,1.06,0,0,0,173.246,66.143Zm-7.412-4.322,5.6,3.9-5.6,3.9Z" transform="translate(-158.068 -60.88)"/><path class="a" d="M9.33,112.211a5.929,5.929,0,0,0,2.31.012.323.323,0,1,0-.122-.634,5.283,5.283,0,0,1-2.06-.011,11.134,11.134,0,0,1-8.706-8.706A5.3,5.3,0,0,1,2.2,98.056a1.121,1.121,0,0,1,1.583,0L5.6,99.87a.793.793,0,0,1-.083,1.194l-1.128.852a1.654,1.654,0,0,0-.453,2.154A11.819,11.819,0,0,0,8.262,108.4a1.654,1.654,0,0,0,2.154-.453l.852-1.128a.794.794,0,0,1,1.194-.083l1.814,1.814a1.12,1.12,0,0,1,0,1.582,5.3,5.3,0,0,1-1.314.961.323.323,0,0,0,.3.573,5.95,5.95,0,0,0,1.474-1.078,1.766,1.766,0,0,0,0-2.5l-1.814-1.814a1.439,1.439,0,0,0-2.165.15L9.9,107.554a1.022,1.022,0,0,1-1.317.283,11.172,11.172,0,0,1-4.09-4.09,1.022,1.022,0,0,1,.283-1.317l1.128-.852a1.439,1.439,0,0,0,.15-2.165L4.242,97.6a1.766,1.766,0,0,0-2.5,0A5.945,5.945,0,0,0,.121,103,11.778,11.778,0,0,0,9.33,112.211Z" transform="translate(0 -95.523)"/></svg>