<svg xmlns="http://www.w3.org/2000/svg" width="20.025" height="17.851" viewBox="0 0 20.025 17.851"><defs><style>.a{fill:#d5d5d5;}</style></defs><g transform="translate(0 0)"><path class="a" d="M19.812,34.848,10.319,27.9a.52.52,0,0,0-.615,0L.212,34.848a.52.52,0,0,0,.615.84l9.185-6.725L19.2,35.688a.52.52,0,0,0,.615-.84Z" transform="translate(0.001 -27.798)"/></g><g transform="translate(2.208 8.008)"><g transform="translate(0 0)"><path class="a" d="M71.541,232.543a.52.52,0,0,0-.52.52v8.282H66.858v-4.521a2.6,2.6,0,0,0-5.2,0v4.521H57.493v-8.282a.52.52,0,0,0-1.041,0v8.8a.52.52,0,0,0,.52.52h5.2a.52.52,0,0,0,.518-.48.393.393,0,0,0,0-.041v-5.041a1.561,1.561,0,0,1,3.122,0v5.041a.382.382,0,0,0,0,.04.52.52,0,0,0,.518.48h5.2a.52.52,0,0,0,.52-.52v-8.8A.52.52,0,0,0,71.541,232.543Z" transform="translate(-56.452 -232.543)"/></g></g></svg>