<svg xmlns="http://www.w3.org/2000/svg" width="31.408" height="31.408" viewBox="0 0 31.408 31.408"><defs><style>.a{fill:#d5d5d5;}</style></defs><path class="a" d="M22.093-79.224H10.315A9.816,9.816,0,0,0,.5-69.409v11.778a9.816,9.816,0,0,0,9.815,9.815H22.093a9.816,9.816,0,0,0,9.815-9.815V-69.409A9.816,9.816,0,0,0,22.093-79.224Zm6.871,21.593a6.878,6.878,0,0,1-6.871,6.871H10.315a6.878,6.878,0,0,1-6.871-6.871V-69.409a6.878,6.878,0,0,1,6.871-6.871H22.093a6.878,6.878,0,0,1,6.871,6.871Z" transform="translate(-0.5 79.224)"/><g transform="translate(7.852 7.852)"><path class="a" d="M136.352,48.776a7.852,7.852,0,1,0,7.852,7.852A7.852,7.852,0,0,0,136.352,48.776Zm0,12.76a4.908,4.908,0,1,1,4.908-4.908A4.914,4.914,0,0,1,136.352,61.536Z" transform="translate(-128.5 -48.776)"/></g><g transform="translate(23.099 6.217)"><ellipse class="a" cx="1.046" cy="1.046" rx="1.046" ry="1.046"/></g></svg>