<svg xmlns="http://www.w3.org/2000/svg" width="14.956" height="20.452" viewBox="0 0 14.956 20.452"><defs><style>.a{fill:#d5d5d5;}</style></defs><g transform="translate(14.956) rotate(90)"><path class="a" d="M15.536,0h-1.9a.3.3,0,0,0,0,.6h1.9a.461.461,0,0,1,.46.46v.746H14.989a.3.3,0,1,0,0,.6H16V5.617l-1.562.419H8.179a.3.3,0,0,0,0,.6h6.232L16,7.318v.93a.461.461,0,0,1-.46.46H1.059a.461.461,0,0,1-.46-.46V5.484H4.078a.3.3,0,1,0,0-.6H.6V4.557a.3.3,0,0,0-.6,0V8.248A1.061,1.061,0,0,0,1.059,9.307H15.536a1.061,1.061,0,0,0,1.059-1.059V7.121a.3.3,0,0,0-.181-.275L15.383,6.4l.99-.266a.3.3,0,0,0,.222-.289V1.06A1.061,1.061,0,0,0,15.536,0Z" transform="translate(3.857 5.649)"/><path class="a" d="M16.595,8.248V1.06A1.061,1.061,0,0,0,15.536,0H6.673a.3.3,0,0,0,0,.6H8.647a3.708,3.708,0,0,1,.638,1.249,1.036,1.036,0,0,1-.3,1.112,2,2,0,0,1-1.449.371,6.75,6.75,0,0,1-2.306-.644c-.42-.2-.831-.425-1.267-.665A10.245,10.245,0,0,0,.768.7.459.459,0,0,1,1.059.6H5.475a.3.3,0,0,0,0-.6H1.059A1.061,1.061,0,0,0,0,1.06V8.248A1.061,1.061,0,0,0,1.059,9.307H15.536A1.06,1.06,0,0,0,16.595,8.248ZM16,1.06V4.318a6.874,6.874,0,0,1-.9.947,7.969,7.969,0,0,1-4.449,1.861c-2.568.242-5.263-.717-7.92-.539A7.573,7.573,0,0,0,.6,7.027V5.638c.251-.05.506-.093.761-.129a25.966,25.966,0,0,1,6.261.051l.1.01a9.517,9.517,0,0,0,1.873.068,3.319,3.319,0,0,0,1.925-.767,3.344,3.344,0,0,0,.836-3.222A5.606,5.606,0,0,0,12,.6h3.54A.461.461,0,0,1,16,1.06ZM4.978,3.229a7.344,7.344,0,0,0,2.51.7q.151.013.3.013a2.4,2.4,0,0,0,1.6-.529c.736-.643.726-1.651-.009-2.812h1.961a5.324,5.324,0,0,1,.435,1.183,2.753,2.753,0,0,1-.651,2.643,2.78,2.78,0,0,1-1.582.617A9.068,9.068,0,0,1,7.78,4.975l-.1-.01a26.509,26.509,0,0,0-6.406-.049c-.227.032-.453.069-.677.112V1.284A9.578,9.578,0,0,1,3.677,2.548C4.1,2.782,4.541,3.024,4.978,3.229ZM.6,8.248V7.671a6.788,6.788,0,0,1,2.165-.487C5.381,7.009,8,7.976,10.7,7.722a8.574,8.574,0,0,0,4.785-2q.267-.231.51-.486V8.248a.461.461,0,0,1-.46.46H1.059A.461.461,0,0,1,.6,8.248Z" transform="translate(0 0)"/></g></svg>